<svg width="33" height="33" viewBox="0 0 33 33" fill="none" xmlns="http://www.w3.org/2000/svg">
<g id="icon">
<path id="facebook" fill-rule="evenodd" clip-rule="evenodd" d="M0 6C0 3.23858 2.23858 1 5 1H27C29.7614 1 32 3.23858 32 6V28C32 30.7614 29.7614 33 27 33H5C2.23858 33 0 30.7614 0 28V6ZM16 9C20.4 9 24 12.6 24 17C24 21 21.1 24.4 17.1 25V19.3H19L19.4 17H17.2V15.5C17.2 14.9 17.5 14.3 18.5 14.3H19.5V12.3C19.5 12.3 18.6 12.1 17.7 12.1C15.9 12.1 14.7 13.2 14.7 15.2V17H12.7V19.3H14.7V24.9C10.9 24.3 8 21 8 17C8 12.6 11.6 9 16 9Z" fill="#99449F"/>
<path id="Vector " d="M27.5 7L26 1.5V0H32.5V13.5L27.5 7Z" fill="#131313"/>
</g>
</svg>
