<svg width="32" height="33" viewBox="0 0 32 33" fill="none" xmlns="http://www.w3.org/2000/svg">
<g id="icon">
<g id="instagram">
<path d="M16 19.8C14.5 19.8 13.2 18.6 13.2 17C13.2 15.5 14.4 14.2 16 14.2C17.5 14.2 18.8 15.4 18.8 17C18.8 18.5 17.5 19.8 16 19.8Z" fill="#99449F"/>
<path fill-rule="evenodd" clip-rule="evenodd" d="M19.4 10.2H12.6C11.8 10.3 11.4 10.4 11.1 10.5C10.7 10.6 10.4 10.8 10.1 11.1C9.86261 11.3374 9.75045 11.5748 9.61489 11.8617C9.57916 11.9373 9.5417 12.0166 9.5 12.1C9.48453 12.1464 9.46667 12.1952 9.44752 12.2475C9.34291 12.5333 9.2 12.9238 9.2 13.6V20.4C9.3 21.2 9.4 21.6 9.5 21.9C9.6 22.3 9.8 22.6 10.1 22.9C10.3374 23.1374 10.5748 23.2495 10.8617 23.3851C10.9374 23.4209 11.0165 23.4583 11.1 23.5C11.1464 23.5155 11.1952 23.5333 11.2475 23.5525C11.5333 23.6571 11.9238 23.8 12.6 23.8H19.4C20.2 23.7 20.6 23.6 20.9 23.5C21.3 23.4 21.6 23.2 21.9 22.9C22.1374 22.6626 22.2495 22.4252 22.3851 22.1383C22.4209 22.0626 22.4583 21.9835 22.5 21.9C22.5155 21.8536 22.5333 21.8048 22.5525 21.7525C22.6571 21.4667 22.8 21.0762 22.8 20.4V13.6C22.7 12.8 22.6 12.4 22.5 12.1C22.4 11.7 22.2 11.4 21.9 11.1C21.6626 10.8626 21.4252 10.7505 21.1383 10.6149C21.0627 10.5792 20.9833 10.5417 20.9 10.5C20.8536 10.4845 20.8048 10.4667 20.7525 10.4475C20.4667 10.3429 20.0762 10.2 19.4 10.2ZM16 12.7C13.6 12.7 11.7 14.6 11.7 17C11.7 19.4 13.6 21.3 16 21.3C18.4 21.3 20.3 19.4 20.3 17C20.3 14.6 18.4 12.7 16 12.7ZM21.4 12.6C21.4 13.1523 20.9523 13.6 20.4 13.6C19.8477 13.6 19.4 13.1523 19.4 12.6C19.4 12.0477 19.8477 11.6 20.4 11.6C20.9523 11.6 21.4 12.0477 21.4 12.6Z" fill="#99449F"/>
<path fill-rule="evenodd" clip-rule="evenodd" d="M0 6C0 3.23858 2.23858 1 5 1H27C29.7614 1 32 3.23858 32 6V28C32 30.7614 29.7614 33 27 33H5C2.23858 33 0 30.7614 0 28V6ZM12.6 8.7H19.4C20.3 8.8 20.9 8.9 21.4 9.1C22 9.4 22.4 9.6 22.9 10.1C23.4 10.6 23.7 11.1 23.9 11.6C24.1 12.1 24.3 12.7 24.3 13.6V20.4C24.2 21.3 24.1 21.9 23.9 22.4C23.6 23 23.4 23.4 22.9 23.9C22.4 24.4 21.9 24.7 21.4 24.9C20.9 25.1 20.3 25.3 19.4 25.3H12.6C11.7 25.2 11.1 25.1 10.6 24.9C10 24.6 9.6 24.4 9.1 23.9C8.6 23.4 8.3 22.9 8.1 22.4C7.9 21.9 7.7 21.3 7.7 20.4V13.6C7.8 12.7 7.9 12.1 8.1 11.6C8.4 11 8.6 10.6 9.1 10.1C9.6 9.6 10.1 9.3 10.6 9.1C11.1 8.9 11.7 8.7 12.6 8.7Z" fill="#99449F"/>
</g>
<path id="Vector " d="M4 7H0V0H10.5L8 5L4.5 4L4 7Z" fill="#131313"/>
</g>
</svg>
